<?xml version="1.0" encoding="UTF-8"?>
<svg version="1.1" xmlns="http://www.w3.org/2000/svg" width="1024" height="1024">
<path d="M0 0 C337.92 0 675.84 0 1024 0 C1024 337.92 1024 675.84 1024 1024 C686.08 1024 348.16 1024 0 1024 C0 686.08 0 348.16 0 0 Z " fill="#EDF5F4" transform="translate(0,0)"/>
<path d="M0 0 C11.06837242 9.29219779 19.14339793 22.54270016 21.3125 36.94140625 C21.90153581 46.11254338 22.4213302 55.52369045 18.3125 63.94140625 C17.87550781 64.90433594 17.43851563 65.86726563 16.98828125 66.859375 C14.02315363 73.1242772 10.69576751 78.59055575 6.3125 83.94140625 C5.9103125 84.52277344 5.508125 85.10414063 5.09375 85.703125 C-0.40991697 93.16999025 -10.82700417 98.62023912 -19.6875 100.94140625 C-21.6675 100.94140625 -23.6475 100.94140625 -25.6875 100.94140625 C-25.6875 147.47140625 -25.6875 194.00140625 -25.6875 241.94140625 C-12.1575 241.94140625 1.3725 241.94140625 15.3125 241.94140625 C15.3125 247.88140625 15.3125 253.82140625 15.3125 259.94140625 C9.0425 259.94140625 2.7725 259.94140625 -3.6875 259.94140625 C-3.6875 265.55140625 -3.6875 271.16140625 -3.6875 276.94140625 C2.5825 276.94140625 8.8525 276.94140625 15.3125 276.94140625 C15.3125 282.88140625 15.3125 288.82140625 15.3125 294.94140625 C1.7825 294.94140625 -11.7475 294.94140625 -25.6875 294.94140625 C-25.62949219 299.99710938 -25.57148437 305.0528125 -25.51171875 310.26171875 C-25.48616229 313.47008429 -25.46209234 316.67832383 -25.44335938 319.88671875 C-25.41350227 324.97617752 -25.37823262 330.06518531 -25.31030273 335.15429688 C-25.25586204 339.25865485 -25.22605434 343.36252906 -25.21311378 347.46722031 C-25.20389537 349.03092945 -25.18589337 350.59461294 -25.15884972 352.15811539 C-25.12239578 354.3535447 -25.11756098 356.54699113 -25.11987305 358.74267578 C-25.10876999 359.99065948 -25.09766693 361.23864319 -25.08622742 362.52444458 C-25.8904819 367.09492862 -27.43953069 368.6651999 -30.6875 371.94140625 C-34.44206567 374.44445003 -36.23495934 374.39420699 -40.6875 373.94140625 C-45.15139973 371.79530061 -47.25287613 369.6695359 -49.09217513 365.0734967 C-50.27307935 360.84421833 -50.08655441 356.55163824 -50.04826355 352.1910553 C-50.05082682 351.11926716 -50.0533901 350.04747902 -50.05603105 348.94321245 C-50.0609658 345.35790249 -50.04448057 341.7730152 -50.02807617 338.18774414 C-50.02722984 335.61531586 -50.02770517 333.04288685 -50.02940369 330.47045898 C-50.03097438 324.93531496 -50.02158663 319.40027727 -50.00469017 313.86515999 C-49.98027693 305.8623935 -49.97249253 297.85967826 -49.9687262 289.85687857 C-49.96216535 276.87192312 -49.94221417 263.88702432 -49.91381836 250.90209961 C-49.88626828 238.29077436 -49.86503935 225.67946451 -49.85229492 213.06811523 C-49.85150675 212.29034845 -49.85071858 211.51258167 -49.84990653 210.7112462 C-49.84599133 206.80929814 -49.84220022 202.90734997 -49.83847082 199.00540173 C-49.80738634 166.65069541 -49.75456056 134.2960587 -49.6875 101.94140625 C-50.93547363 101.64049072 -52.18344727 101.3395752 -53.46923828 101.02954102 C-66.80371141 97.81428878 -78.44016767 89.40211316 -86.3125 78.2421875 C-95.36536326 63.09407255 -97.90076945 47.68150184 -95.10546875 30.328125 C-90.35282492 14.29066477 -78.94023745 2.03406226 -64.6875 -6.05859375 C-44.12851867 -16.87557412 -18.46958382 -13.70419441 0 0 Z " fill="#1C2C3C" transform="translate(546.6875,230.05859375)"/>
<path d="M0 0 C5.57549769 3.99352257 10.85589901 9.73168321 12.2578125 16.6171875 C13.24996766 25.74724451 12.56978457 32.98304184 7.2578125 40.6171875 C4.6953125 43.5546875 4.6953125 43.5546875 2.2578125 45.6171875 C1.5978125 46.1946875 0.9378125 46.7721875 0.2578125 47.3671875 C-1.7421875 48.6171875 -1.7421875 48.6171875 -6.7421875 49.6171875 C-6.7421875 60.1771875 -6.7421875 70.7371875 -6.7421875 81.6171875 C2.5770107 81.45929492 2.5770107 81.45929492 11.89526367 81.25683594 C13.06033447 81.2468457 14.22540527 81.23685547 15.42578125 81.2265625 C16.61453857 81.20561523 17.8032959 81.18466797 19.02807617 81.16308594 C22.89355131 81.7065725 24.50431731 82.90870772 27.2578125 85.6171875 C28.73051045 88.5625834 28.3804333 91.17427304 28.37806702 94.46340942 C28.37934865 95.53177986 28.37934865 95.53177986 28.38065618 96.62173355 C28.38230978 99.02014573 28.37679157 101.41848874 28.37133789 103.81689453 C28.37105597 105.53145343 28.37121385 107.24601246 28.3717804 108.96057129 C28.37206817 113.62560384 28.36617468 118.29061086 28.35920644 122.95563745 C28.35296956 127.82702157 28.35236884 132.69840621 28.35118103 137.5697937 C28.3480687 146.79913384 28.33985664 156.02846218 28.32983154 165.25779712 C28.31866735 175.76308338 28.31315918 186.26837019 28.30813611 196.7736609 C28.29767395 218.38817636 28.28007641 240.00268119 28.2578125 261.6171875 C21.71477801 260.83778694 16.13813699 259.46168811 9.9453125 257.1796875 C8.98616943 256.82696777 8.02702637 256.47424805 7.03881836 256.11083984 C-17.29130784 246.88597629 -37.78630358 232.23902395 -56.7421875 214.6171875 C-57.45761719 213.9675 -58.17304688 213.3178125 -58.91015625 212.6484375 C-80.03209384 192.64223068 -104.77231606 154.85172508 -106.3671875 124.9921875 C-106.14165554 121.69171986 -105.65410685 120.46532431 -103.9296875 117.4921875 C-99.38400945 114.81825923 -94.88230073 114.36170007 -89.7421875 115.6171875 C-84.97273605 119.2827303 -83.3009145 123.39152603 -81.3671875 128.8671875 C-80.76283711 130.48609502 -80.15734064 132.10457509 -79.55078125 133.72265625 C-79.24897949 134.54040527 -78.94717773 135.3581543 -78.63623047 136.20068359 C-63.4884913 177.1434259 -34.95277098 209.10222082 4.2578125 228.6171875 C5.9078125 229.2771875 7.5578125 229.9371875 9.2578125 230.6171875 C9.2578125 188.3771875 9.2578125 146.1371875 9.2578125 102.6171875 C3.9778125 102.6171875 -1.3021875 102.6171875 -6.7421875 102.6171875 C-6.72273969 108.34704537 -6.67093816 114.0753733 -6.58959961 119.8046875 C-6.56645355 121.75219377 -6.55203187 123.69982461 -6.54663086 125.64746094 C-6.53731641 128.45326052 -6.49627244 131.25711004 -6.44921875 134.0625 C-6.4531514 134.92835724 -6.45708405 135.79421448 -6.46113586 136.68630981 C-6.31592602 142.75102638 -5.03749603 145.33138827 -0.7421875 149.6171875 C2.19957899 154.2883561 1.84999406 159.27274893 1.2578125 164.6171875 C-0.49778713 170.54233626 -3.69784197 174.18703254 -8.7421875 177.6171875 C-14.08319305 180.22558556 -19.91899445 180.40410548 -25.7421875 179.6171875 C-32.14945169 177.25430276 -36.27853229 172.34600131 -39.7421875 166.6171875 C-41.76826513 160.53895462 -41.23825018 156.06239733 -38.5546875 150.3671875 C-36.48783398 146.56136658 -34.57132317 143.83405552 -30.7421875 141.6171875 C-29.7521875 141.6171875 -28.7621875 141.6171875 -27.7421875 141.6171875 C-27.7421875 128.7471875 -27.7421875 115.8771875 -27.7421875 102.6171875 C-33.95289063 102.70419922 -33.95289063 102.70419922 -40.2890625 102.79296875 C-43.59309127 102.82512965 -46.89707575 102.85224121 -50.20117188 102.87593842 C-53.68782011 102.90232979 -57.17385949 102.93758635 -60.66015625 102.99438477 C-64.66151783 103.05916569 -68.66223589 103.08337962 -72.6640625 103.10546875 C-74.53611359 103.14417839 -74.53611359 103.14417839 -76.44598389 103.18367004 C-77.60688538 103.1840477 -78.76778687 103.18442535 -79.96386719 103.18481445 C-80.98534851 103.19591751 -82.00682983 103.20702057 -83.05926514 103.21846008 C-86.72180859 102.39764358 -87.72494454 100.68750365 -89.7421875 97.6171875 C-91.29243214 94.51669822 -91.03210765 92.03824532 -90.7421875 88.6171875 C-88.663089 85.39100017 -86.94179221 83.7502573 -83.7421875 81.6171875 C-81.25544739 81.37667847 -81.25544739 81.37667847 -78.26098633 81.39013672 C-77.14005081 81.39028778 -76.0191153 81.39043884 -74.86421204 81.39059448 C-73.05004036 81.40607834 -73.05004036 81.40607834 -71.19921875 81.421875 C-69.34111824 81.42611984 -69.34111824 81.42611984 -67.44548035 81.43045044 C-64.15580663 81.43975564 -60.86632887 81.45771959 -57.57672119 81.4798584 C-54.21848956 81.5003348 -50.86022922 81.50945598 -47.50195312 81.51953125 C-40.91528777 81.54160479 -34.32875367 81.57509228 -27.7421875 81.6171875 C-27.71201665 76.8838016 -27.72770681 72.15354814 -27.78491211 67.42041016 C-27.79800779 65.81239043 -27.79882632 64.20421997 -27.78686523 62.59619141 C-27.38665652 53.54083848 -27.38665652 53.54083848 -30.28149414 45.29785156 C-32.03441792 43.82136882 -33.764495 42.75809931 -35.7421875 41.6171875 C-41.71585276 33.8675677 -42.70064665 26.17840192 -41.7421875 16.6171875 C-40.81032414 13.61024696 -39.51368821 11.20630392 -37.7421875 8.6171875 C-37.2059375 7.7509375 -36.6696875 6.8846875 -36.1171875 5.9921875 C-26.31556044 -3.80943956 -12.3562247 -7.03232081 0 0 Z " fill="#3A4F5A" transform="translate(443.7421875,326.3828125)"/>
<path d="M0 0 C7.18195616 4.44201912 12.16212582 10.06799364 14.64453125 18.30078125 C15.98753235 25.15282767 14.94054468 31.9511319 12.02734375 38.25390625 C11.56433868 38.70338623 11.10133362 39.15286621 10.6242981 39.6159668 C3.84949639 46.5152091 5.13484771 55.7399465 5.15234375 64.75390625 C5.13419775 66.45185376 5.1133891 68.14977503 5.08984375 69.84765625 C5.03824737 73.98340743 5.02289501 78.11785109 5.02734375 82.25390625 C5.92856964 82.2450238 6.82979553 82.23614136 7.7583313 82.22698975 C16.2623411 82.14675502 24.7662233 82.0858967 33.27052498 82.04665756 C37.64242866 82.02580587 42.01401889 81.99753283 46.38574219 81.95214844 C50.60679062 81.90860378 54.82753804 81.88475095 59.04879379 81.87439728 C60.65713106 81.86702131 62.26545234 81.85261758 63.87366104 81.83098602 C66.13113922 81.80183613 68.38738264 81.79795488 70.64501953 81.79980469 C72.57028976 81.78648102 72.57028976 81.78648102 74.53445435 81.77288818 C78.65384917 82.34018451 80.80259223 83.68044888 84.02734375 86.25390625 C86.04804236 89.13898301 86.29180117 91.28221287 85.96484375 94.75390625 C85.91199219 95.50671875 85.85914063 96.25953125 85.8046875 97.03515625 C84.65243339 100.32400214 82.93391984 101.3747684 80.02734375 103.25390625 C77.36648905 103.62101064 75.13362749 103.76297393 72.4831543 103.70800781 C71.72922551 103.70848995 70.97529673 103.70897209 70.19852161 103.70946884 C67.76988008 103.70649481 65.34248289 103.67609109 62.9140625 103.64453125 C61.41004019 103.63864645 59.90600969 103.63456799 58.40197754 103.63232422 C52.83947428 103.61139501 47.27714665 103.55554976 41.71484375 103.50390625 C29.27796875 103.42140625 16.84109375 103.33890625 4.02734375 103.25390625 C4.35734375 136.58390625 4.68734375 169.91390625 5.02734375 204.25390625 C17.1796876 193.31679679 26.55032874 182.08409557 35.02734375 168.25390625 C35.39682129 167.6511084 35.76629883 167.04831055 36.14697266 166.42724609 C40.55368162 159.06030515 44.03128816 151.4342456 47.08203125 143.421875 C47.34635956 142.72808746 47.61068787 142.03429993 47.88302612 141.31948853 C49.21150995 137.811752 50.51198741 134.29609318 51.77880859 130.765625 C52.26262715 129.45309987 52.74651108 128.14059884 53.23046875 126.828125 C53.85937012 125.07375122 53.85937012 125.07375122 54.50097656 123.28393555 C56.21376144 119.88384388 57.8666258 118.32894823 61.02734375 116.25390625 C65.27410607 115.33038088 69.02167951 115.80456691 72.96484375 117.56640625 C75.02734375 119.25390625 75.02734375 119.25390625 77.02734375 122.25390625 C78.89595108 150.99648439 53.89710672 186.01117599 36.03173828 206.78515625 C28.39735682 215.47246105 20.20767334 223.22289418 11.02734375 230.25390625 C10.44162598 230.70491699 9.8559082 231.15592773 9.25244141 231.62060547 C-7.9205916 244.70081349 -33.66923958 262.25390625 -55.97265625 262.25390625 C-55.97265625 254.33390625 -55.97265625 246.41390625 -55.97265625 238.25390625 C-54.30203125 237.82078125 -52.63140625 237.38765625 -50.91015625 236.94140625 C-40.94479926 233.9132591 -31.74740226 229.05198416 -22.4453125 224.42724609 C-20.00043237 223.26708674 -17.48528102 222.25895616 -14.97265625 221.25390625 C-14.97265625 182.31390625 -14.97265625 143.37390625 -14.97265625 103.25390625 C-27.84265625 103.25390625 -40.71265625 103.25390625 -53.97265625 103.25390625 C-56.07465925 101.15190325 -55.2037542 96.77092042 -55.22265625 93.87890625 C-55.24328125 93.09773438 -55.26390625 92.3165625 -55.28515625 91.51171875 C-55.32389673 85.85560828 -55.32389673 85.85560828 -53.96264648 83.52368164 C-50.7923028 81.50074489 -47.44253541 81.88797125 -43.8046875 81.9609375 C-42.61246834 81.96730476 -42.61246834 81.96730476 -41.39616394 81.97380066 C-38.85881604 81.99058695 -36.32226387 82.02823801 -33.78515625 82.06640625 C-32.0644646 82.0814532 -30.34376049 82.09514159 -28.62304688 82.10742188 C-24.40569719 82.13793815 -20.19006682 82.19665633 -15.97265625 82.25390625 C-15.97265625 72.02390625 -15.97265625 61.79390625 -15.97265625 51.25390625 C-18.94265625 50.75890625 -18.94265625 50.75890625 -21.97265625 50.25390625 C-30.64236294 46.64152846 -34.91797849 41.91617505 -38.828125 33.5078125 C-41.32592685 26.40655332 -41.04813547 19.89372586 -38.03515625 13.00390625 C-34.33208321 6.48943498 -29.00840922 2.0868137 -22.66015625 -1.74609375 C-14.83964143 -3.86691133 -7.26697802 -3.7714696 0 0 Z " fill="#3A505C" transform="translate(602.97265625,325.74609375)"/>
<path d="M0 0 C8.53907779 6.30802792 14.13018468 13.17671272 15.875 23.8125 C16.69576579 35.46468313 15.9091472 45.30688772 8.25 54.625 C0.31359021 62.85589624 -9.73688178 67.88075846 -21.1875 68.125 C-33.04425199 67.79355331 -42.75735423 63.32222306 -51.05078125 54.84375 C-57.7040523 46.97949814 -60.90058452 37.77804287 -60.44140625 27.46875 C-59.05342765 15.81658395 -53.49122995 6.97889455 -44.51171875 -0.45703125 C-31.52404122 -9.87362887 -13.02387821 -8.5141174 0 0 Z " fill="#82A2B1" transform="translate(531.125,245.1875)"/>
<path d="M0 0 C7.34031003 4.05805758 13.25702226 9.84412513 19.23095703 15.64550781 C20.49785545 16.86863383 21.78950574 18.06603503 23.0859375 19.2578125 C45.91626229 40.78953166 60.49354004 70.4785249 69.58984375 100.078125 C69.80535889 100.7599585 70.02087402 101.44179199 70.24291992 102.14428711 C71.65489388 106.92908242 72.09605339 111.08533759 71.71484375 116.078125 C68.93997254 119.51020255 66.73379583 121.82128568 62.2890625 122.38671875 C60.86013672 122.45052734 60.86013672 122.45052734 59.40234375 122.515625 C58.45746094 122.57621094 57.51257813 122.63679688 56.5390625 122.69921875 C53.25648558 121.97732424 51.81995667 120.76272346 49.82495117 118.07836914 C47.57504807 114.02438714 46.65084411 109.54572473 45.52734375 105.078125 C40.16008306 85.46646252 31.68160448 68.47179354 19.71484375 52.078125 C19.06257812 51.16289062 18.4103125 50.24765625 17.73828125 49.3046875 C9.00021956 37.71809469 -1.99509472 27.10575364 -13.9296875 18.875 C-16.26563457 17.09301716 -17.79192961 15.60167802 -19.28515625 13.078125 C-19.18912352 7.79632501 -18.01434821 4.80731696 -14.28515625 1.078125 C-10.03198404 -2.11175416 -4.74897177 -1.91582451 0 0 Z " fill="#3A515E" transform="translate(609.28515625,271.921875)"/>
<path d="M0 0 C3.75212276 2.01502889 5.63644095 3.45466142 8 7 C8.53939798 10.23638789 8.81864741 11.93007221 8 15 C5.72589817 17.84262729 2.91589709 19.84722945 0 22 C-1.69132929 23.34938091 -3.37876686 24.70365258 -5.0625 26.0625 C-6.31546875 27.05830078 -6.31546875 27.05830078 -7.59375 28.07421875 C-13.55631911 32.39825929 -13.55631911 32.39825929 -18 38 C-18.66 38 -19.32 38 -20 38 C-20.268125 38.59167969 -20.53625 39.18335938 -20.8125 39.79296875 C-22.0103024 42.01914755 -23.25936491 43.49236475 -25 45.3125 C-41.26156535 63.53491938 -54.38665628 88.92445448 -59 112.9375 C-59.81048593 116.82783245 -61.04700618 119.21574868 -64 122 C-67.72134608 124.27415594 -70.88375601 124.20703828 -75.06640625 123.55078125 C-78.01284741 122.71149195 -79.86108171 121.13891829 -82 119 C-85.18287533 112.63424933 -82.37030213 104.9662919 -80.30810547 98.67382812 C-79.91768066 97.54396484 -79.52725586 96.41410156 -79.125 95.25 C-78.52196045 93.47786133 -78.52196045 93.47786133 -77.90673828 91.66992188 C-72.65435156 76.63995294 -66.15874987 62.07604651 -57 49 C-56.14208828 47.71039367 -55.28542374 46.41995718 -54.4296875 45.12890625 C-44.03295343 29.67492524 -21.19879699 -2.96542718 0 0 Z " fill="#3A505D" transform="translate(420,271)"/>
<path d="M0 0 C4.95 0 9.9 0 15 0 C15 24.75 15 49.5 15 75 C10.71 75 6.42 75 2 75 C1.67 73.68 1.34 72.36 1 71 C-0.299375 71.99 -0.299375 71.99 -1.625 73 C-7.19285827 76.19952592 -13.79682582 75.79053081 -20 75 C-24.66966801 73.03059402 -27.60162729 70.75609615 -31 67 C-32.0209375 65.948125 -32.0209375 65.948125 -33.0625 64.875 C-38.110681 57.38415078 -40.2509815 49.4410039 -38.52734375 40.56640625 C-36.13383565 31.15003008 -31.16466561 25.08365972 -23 20 C-19.72974865 18.90991622 -17.19121164 18.79801691 -13.75 18.75 C-12.10257813 18.71132813 -12.10257813 18.71132813 -10.421875 18.671875 C-7 19 -7 19 0 22 C0 14.74 0 7.48 0 0 Z " fill="#1F2E3E" transform="translate(710,653)"/>
<path d="M0 0 C3.72297861 1.8614893 5.44451274 3.25586673 8.25 6.1875 C10.89029842 8.93861386 13.58407267 11.52213726 16.484375 13.9921875 C22.63113728 19.31770203 28.27390111 25.16909926 34 30.9375 C37.96 34.918125 41.92 38.89875 46 43 C46.33 29.47 46.66 15.94 47 2 C51.62 2 56.24 2 61 2 C61 26.09 61 50.18 61 75 C53.23641998 71.11820999 47.16751485 64.32576424 41.1796875 58.1171875 C39.26687428 56.25922197 37.30853818 54.52453512 35.2890625 52.78515625 C30.82333683 48.90569278 26.65622949 44.7683548 22.5 40.5625 C20.025 38.066875 17.55 35.57125 15 33 C14.67 46.53 14.34 60.06 14 74 C9.38 74 4.76 74 0 74 C0 49.58 0 25.16 0 0 Z " fill="#1E2D3D" transform="translate(189,654)"/>
<path d="M0 0 C7.00400371 4.35466317 12.55592944 10.29527509 14.5 18.4375 C15.52782287 27.82365599 15.52347677 36.6473222 9.5 44.4375 C4.2410223 50.06736402 -0.3637897 54.02344312 -8.20703125 54.80859375 C-21.54545015 55.20921479 -21.54545015 55.20921479 -26.83203125 51.04296875 C-27.38246094 50.51316406 -27.93289063 49.98335937 -28.5 49.4375 C-29.43392578 48.56544922 -29.43392578 48.56544922 -30.38671875 47.67578125 C-36.55979125 41.29564552 -39.63025657 34.30986511 -40.0625 25.4375 C-39.75447449 17.43910419 -36.57108724 11.37825594 -31.1875 5.5625 C-22.67991724 -2.11065033 -10.94134476 -4.93642703 0 0 Z " fill="#1B2B3B" transform="translate(650.5,673.5625)"/>
<path d="M0 0 C7.61407945 3.46365967 12.88363951 9.98786371 16.4921875 17.34375 C18.9326141 25.33207974 17.77224933 33.7810414 14.4921875 41.34375 C10.87811376 47.77252292 5.7618965 52.60970046 -1.3359375 54.9453125 C-8.68775552 56.29402732 -16.2855835 56.60950945 -22.9453125 52.90625 C-29.64467238 48.23766807 -34.40882965 42.27107128 -36.5078125 34.34375 C-37.4838212 25.09735175 -37.23739452 16.95097818 -31.5078125 9.34375 C-22.8528153 -0.02212992 -12.61788811 -3.30187726 0 0 Z " fill="#1E2D3C" transform="translate(295.5078125,672.65625)"/>
<path d="M0 0 C4.30726332 3.75148741 7.68181063 8.21753119 8.17411804 14.06982422 C8.23119849 16.60749365 8.22465557 19.13763397 8.1953125 21.67578125 C8.1924826 22.6009404 8.18965271 23.52609955 8.18673706 24.47929382 C8.17557392 27.42382942 8.15047637 30.36805688 8.125 33.3125 C8.11496521 35.31314664 8.10584023 37.31379806 8.09765625 39.31445312 C8.07564722 44.2097535 8.04114391 49.10482457 8 54 C4.04 54 0.08 54 -4 54 C-4.33 52.35 -4.66 50.7 -5 49 C-5.53109375 49.34933594 -6.0621875 49.69867187 -6.609375 50.05859375 C-7.66898438 50.74115234 -7.66898438 50.74115234 -8.75 51.4375 C-9.44609375 51.88996094 -10.1421875 52.34242188 -10.859375 52.80859375 C-15.30654221 55.28375068 -19.98564743 55.51645953 -25 55 C-31.02205556 53.06069397 -35.09433056 50.2668619 -38.3125 44.75 C-39.95735637 38.17057453 -39.57739035 32.65105812 -36.1875 26.71875 C-32.51953793 21.40985753 -27.16660317 19.15144043 -21 18 C-15.98319918 17.76491561 -11.02057184 17.82140258 -6 18 C-6.60183749 15.97954558 -7.27306096 13.97888961 -8 12 C-11.93660265 10.03169867 -16.7098262 10.5334133 -21 11 C-23.36140864 12.08152516 -24.94912492 13.35929994 -27 15 C-27.99 15 -28.98 15 -30 15 C-31.82421875 13.1015625 -31.82421875 13.1015625 -33.6875 10.625 C-34.31011719 9.81289063 -34.93273437 9.00078125 -35.57421875 8.1640625 C-37 6 -37 6 -37 4 C-25.37387336 -2.01985213 -12.55367873 -7.08474938 0 0 Z " fill="#1E2D3D" transform="translate(793,674)"/>
<path d="M0 0 C2.6875 1.921875 2.6875 1.921875 5.6875 5.921875 C3.3775 9.551875 1.0675 13.181875 -1.3125 16.921875 C-3.32656795 15.91484102 -5.34057031 14.90759739 -7.34765625 13.88671875 C-8.01667969 13.54769531 -8.68570313 13.20867188 -9.375 12.859375 C-10.04660156 12.51777344 -10.71820313 12.17617188 -11.41015625 11.82421875 C-16.62859227 9.34894417 -21.6475336 9.17395133 -27.3125 9.921875 C-33.29197497 12.05559456 -37.34508914 15.16629815 -40.4375 20.734375 C-42.85317098 26.47696652 -43.46714886 31.34070517 -41.54296875 37.30859375 C-38.75817101 44.02095484 -35.47405129 49.10362861 -28.71875 52.19140625 C-22.41757344 54.10426342 -15.71728721 53.95565011 -9.75 51.109375 C-7.74695161 49.98508333 -6.35675767 48.96930201 -4.78515625 47.28515625 C-3.3125 45.921875 -3.3125 45.921875 -0.3125 45.921875 C0.58440912 47.47190251 1.4543197 49.03757418 2.3125 50.609375 C3.04339844 51.91455078 3.04339844 51.91455078 3.7890625 53.24609375 C4.6875 55.921875 4.6875 55.921875 4.12109375 58.5546875 C0.8759225 63.91319916 -5.82688189 66.7893666 -11.75 68.296875 C-23.04017765 70.20172044 -33.04757464 68.88182236 -42.5625 62.171875 C-50.36190091 55.76294105 -54.40363065 49.60246709 -57.3125 39.921875 C-57.8075 38.436875 -57.8075 38.436875 -58.3125 36.921875 C-59.50362848 25.09567081 -56.86714876 15.86273784 -49.375 6.609375 C-35.45289505 -7.54133595 -16.985898 -9.37429276 0 0 Z " fill="#1D2A3B" transform="translate(456.3125,660.078125)"/>
<path d="M0 0 C5.32988552 3.75514661 8.19714566 8.06898604 9.890625 14.33203125 C10.15104592 17.44744384 10.12415167 20.54354103 10.0859375 23.66796875 C10.0831076 24.54732086 10.08027771 25.42667297 10.07736206 26.33267212 C10.06622212 29.12426719 10.04112911 31.91553415 10.015625 34.70703125 C10.0055872 36.60676618 9.99646275 38.50650617 9.98828125 40.40625 C9.96630306 45.04830232 9.9318161 49.69011127 9.890625 54.33203125 C5.270625 54.33203125 0.650625 54.33203125 -4.109375 54.33203125 C-4.11348389 53.23737549 -4.11759277 52.14271973 -4.12182617 51.01489258 C-4.14364552 46.9423148 -4.19796331 42.87069934 -4.26196289 38.79858398 C-4.28511864 37.03826134 -4.29953294 35.27780064 -4.30493164 33.51733398 C-4.31423942 30.98203746 -4.35526548 28.44890497 -4.40234375 25.9140625 C-4.3984111 25.13053909 -4.39447845 24.34701569 -4.39042664 23.53974915 C-4.50282069 19.30337797 -4.76365796 17.7607092 -7.5246582 14.3371582 C-10.03027238 12.39339612 -11.01017214 11.64454732 -14.109375 11.70703125 C-14.74875 11.69414063 -15.388125 11.68125 -16.046875 11.66796875 C-19.41772229 12.75327943 -20.90234254 14.59538239 -23.109375 17.33203125 C-23.83633479 20.19398553 -23.83117298 22.97200446 -23.81640625 25.9140625 C-23.83152756 26.72824142 -23.84664886 27.54242035 -23.86222839 28.38127136 C-23.90504937 30.96930761 -23.91393747 33.5561763 -23.921875 36.14453125 C-23.94502383 37.90432779 -23.97038998 39.66409666 -23.99804688 41.42382812 C-24.06084332 45.72666544 -24.09322235 50.02877625 -24.109375 54.33203125 C-28.729375 54.33203125 -33.349375 54.33203125 -38.109375 54.33203125 C-38.109375 35.85203125 -38.109375 17.37203125 -38.109375 -1.66796875 C-33.819375 -1.66796875 -29.529375 -1.66796875 -25.109375 -1.66796875 C-24.779375 -0.01796875 -24.449375 1.63203125 -24.109375 3.33203125 C-23.3875 2.71328125 -22.665625 2.09453125 -21.921875 1.45703125 C-14.90616566 -3.84372692 -7.61328339 -4.24125827 0 0 Z " fill="#1F2E3D" transform="translate(358.109375,673.66796875)"/>
<path d="M0 0 C4.62 0 9.24 0 14 0 C14.02505615 1.10512939 14.0501123 2.21025879 14.07592773 3.34887695 C14.17006509 7.44714044 14.27027041 11.54523694 14.37231445 15.64331055 C14.41563934 17.41735937 14.45731619 19.19144923 14.49731445 20.96557617 C14.5550762 23.51493705 14.61875362 26.0640918 14.68359375 28.61328125 C14.70030624 29.40712723 14.71701874 30.20097321 14.73423767 31.01887512 C14.82117718 34.24683077 14.97250366 36.91751099 16 40 C19.64998306 41.21666102 23.21798457 41.75501773 27 41 C29.74495463 39.57280941 29.74495463 39.57280941 32 37 C32.51549689 33.98984935 32.72204627 31.52685811 32.70703125 28.515625 C32.72215256 27.70003113 32.73727386 26.88443726 32.75285339 26.04412842 C32.79575215 23.44580487 32.80456998 20.84864249 32.8125 18.25 C32.83564278 16.48564617 32.86100767 14.72131998 32.88867188 12.95703125 C32.95154517 8.6379181 32.98386346 4.31953041 33 0 C37.62 0 42.24 0 47 0 C47 18.48 47 36.96 47 56 C43.37 56 39.74 56 36 56 C36 54.35 36 52.7 36 51 C35.37738281 51.54140625 35.37738281 51.54140625 34.7421875 52.09375 C28.29794765 56.9471524 21.83127004 57.00987181 14 56 C8.38487926 53.49324967 3.79427265 48.42460992 0.93115234 42.95996094 C-0.36039669 38.85436565 -0.24731093 35.03916042 -0.1953125 30.76171875 C-0.1924826 29.88095169 -0.18965271 29.00018463 -0.18673706 28.09272766 C-0.17557833 25.29084455 -0.15048171 22.48928584 -0.125 19.6875 C-0.11496463 17.78320775 -0.10583975 15.87891048 -0.09765625 13.97460938 C-0.07565309 9.31628203 -0.04115294 4.65819594 0 0 Z " fill="#1C2C3F" transform="translate(467,672)"/>
<path d="M0 0 C1.32 1.32 2.64 2.64 4 4 C1.69 7.3 -0.62 10.6 -3 14 C-4.69125 13.34 -6.3825 12.68 -8.125 12 C-12.2376587 10.50208184 -15.57411814 9.43257925 -20 10 C-20.99 10.495 -20.99 10.495 -22 11 C-21.88693303 12.95894361 -21.88693303 12.95894361 -21 15 C-17.31824825 16.80412518 -13.63507138 17.50704141 -9.625 18.25 C-3.73588565 19.57054886 0.18215558 21.26393983 4 26 C6.44982431 30.04753581 6.5552138 34.37321836 6 39 C4.20226568 44.89257359 1.90610687 47.56572519 -3 51 C-10.47937022 54.77301564 -20.86971295 54.33908254 -28.7109375 51.796875 C-36.45879777 48.08240446 -36.45879777 48.08240446 -39 43 C-36.69 40.36 -34.38 37.72 -32 35 C-26.26666667 36.86666667 -26.26666667 36.86666667 -23.75 38.125 C-19.2811402 39.54690994 -13.29203191 40.14601595 -9 38 C-9.495 35.525 -9.495 35.525 -10 33 C-11.15757812 32.75765625 -12.31515625 32.5153125 -13.5078125 32.265625 C-15.04702146 31.92774986 -16.58607601 31.58917075 -18.125 31.25 C-19.26582031 31.01410156 -19.26582031 31.01410156 -20.4296875 30.7734375 C-26.62747749 29.38427767 -31.03288393 27.17418092 -35.375 22.375 C-37.57871841 17.79804639 -37.79837653 13.99392665 -37 9 C-34.2286629 3.35073591 -29.92779736 -0.60264217 -24.25 -3.3125 C-15.59649101 -5.14304998 -7.90000472 -4.08882033 0 0 Z " fill="#1C2B3C" transform="translate(560,675)"/>
<path d="M0 0 C4.62 0 9.24 0 14 0 C14 4.95 14 9.9 14 15 C18.29 15 22.58 15 27 15 C27 19.29 27 23.58 27 28 C22.71 28 18.42 28 14 28 C14.11342562 32.29226439 14.24018537 36.58340085 14.375 40.875 C14.4059375 42.09832031 14.436875 43.32164062 14.46875 44.58203125 C14.50742187 45.74863281 14.54609375 46.91523437 14.5859375 48.1171875 C14.63306885 49.73536377 14.63306885 49.73536377 14.68115234 51.38623047 C14.74676322 54.15761654 14.74676322 54.15761654 17 56 C20.693507 56.20146402 23.47940432 56.17353189 27 55 C27 59.95 27 64.9 27 70 C20.44904914 71.63773771 13.72313835 72.26431424 7.5 69.375 C2.61597126 64.7351727 0.13004106 60.56955732 -0.11352539 53.88378906 C-0.10828857 52.68979492 -0.10305176 51.49580078 -0.09765625 50.265625 C-0.09443359 48.97011719 -0.09121094 47.67460938 -0.08789062 46.33984375 C-0.07953598 44.97656183 -0.07107104 43.61328058 -0.0625 42.25 C-0.05748168 40.87109535 -0.05291935 39.49218896 -0.04882812 38.11328125 C-0.03704093 34.74214341 -0.02058635 31.37109372 0 28 C-2.64 28 -5.28 28 -8 28 C-8 23.71 -8 19.42 -8 15 C-5.36 15 -2.72 15 0 15 C0 10.05 0 5.1 0 0 Z " fill="#1C2C3C" transform="translate(578,657)"/>
<path d="M0 0 C4.62 0 9.24 0 14 0 C14 19.8 14 39.6 14 60 C16.31 60 18.62 60 21 60 C22 61 22 61 22.09765625 64.16015625 C22.08605469 65.44792969 22.07445312 66.73570312 22.0625 68.0625 C22.05347656 69.35285156 22.04445313 70.64320313 22.03515625 71.97265625 C22.02355469 72.97167969 22.01195312 73.97070312 22 75 C8.76347129 75.7824549 8.76347129 75.7824549 3 71 C-1.10891954 64.25260112 -0.38184527 56.98878284 -0.29296875 49.31640625 C-0.28736582 47.89151966 -0.28309902 46.46662725 -0.28010559 45.04173279 C-0.26871153 41.31144953 -0.23929225 37.58152284 -0.20599365 33.85137939 C-0.17517458 30.03703635 -0.1615751 26.22263508 -0.14648438 22.40820312 C-0.11441636 14.93862156 -0.06169403 7.46940639 0 0 Z " fill="#1C2C3D" transform="translate(810,653)"/>
<path d="M0 0 C7 0 7 0 8.76928711 1.14233398 C9.1844458 1.67157471 9.59960449 2.20081543 10.02734375 2.74609375 C10.5059082 3.33245605 10.98447266 3.91881836 11.47753906 4.52294922 C11.95932617 5.15475098 12.44111328 5.78655273 12.9375 6.4375 C13.97194983 7.72062192 15.00710809 9.00317302 16.04296875 10.28515625 C16.79199463 11.23285889 16.79199463 11.23285889 17.55615234 12.19970703 C19.53629952 14.66869677 21.63210493 17.02387315 23.75 19.375 C24.8225 20.57125 25.895 21.7675 27 23 C27.33 15.74 27.66 8.48 28 1 C30.97 1 33.94 1 37 1 C37 14.2 37 27.4 37 41 C30 41 30 41 28.21484375 39.84179688 C27.79332031 39.30619141 27.37179687 38.77058594 26.9375 38.21875 C26.45385986 37.62731201 25.97021973 37.03587402 25.47192383 36.42651367 C24.98618896 35.79076416 24.5004541 35.15501465 24 34.5 C22.96246986 33.21465784 21.92471045 31.9295007 20.88671875 30.64453125 C20.39349121 30.01885254 19.90026367 29.39317383 19.39208984 28.74853516 C17.6011765 26.49905754 15.71983306 24.33865708 13.8125 22.1875 C13.28269531 21.58292969 12.75289062 20.97835937 12.20703125 20.35546875 C11.49148359 19.55192494 10.760819 18.760819 10 18 C9.67 25.59 9.34 33.18 9 41 C6.03 41 3.06 41 0 41 C0 27.47 0 13.94 0 0 Z " fill="#1C2838" transform="translate(634,763)"/>
<path d="M0 0 C2.97 0 5.94 0 9 0 C9 13.53 9 27.06 9 41 C2 41 2 41 0.23071289 39.85766602 C-0.1844458 39.32842529 -0.59960449 38.79918457 -1.02734375 38.25390625 C-1.5059082 37.66754395 -1.98447266 37.08118164 -2.47753906 36.47705078 C-2.95932617 35.84524902 -3.44111328 35.21344727 -3.9375 34.5625 C-4.97194983 33.27937808 -6.00710809 31.99682698 -7.04296875 30.71484375 C-7.79199463 29.76714111 -7.79199463 29.76714111 -8.55615234 28.80029297 C-10.53629952 26.33130323 -12.63210493 23.97612685 -14.75 21.625 C-15.8225 20.42875 -16.895 19.2325 -18 18 C-18.33 25.59 -18.66 33.18 -19 41 C-21.64 41 -24.28 41 -27 41 C-27 27.8 -27 14.6 -27 1 C-20 1 -20 1 -18.10717773 2.25 C-17.63739502 2.8275 -17.1676123 3.405 -16.68359375 4 C-16.14669922 4.64066406 -15.60980469 5.28132812 -15.05664062 5.94140625 C-14.52232422 6.62074219 -13.98800781 7.30007813 -13.4375 8 C-12.89931641 8.64839844 -12.36113281 9.29679688 -11.80664062 9.96484375 C-8.04733943 14.53391019 -4.55483955 19.26021393 -1 24 C-0.67 16.08 -0.34 8.16 0 0 Z " fill="#192432" transform="translate(334,763)"/>
<path d="M0 0 C2.11576398 0.94705626 4.14300719 1.94079663 6.1484375 3.1015625 C4.87902253 7.01559199 3.63676056 8.89229123 0.1484375 11.1015625 C-0.39941406 10.781875 -0.94726562 10.4621875 -1.51171875 10.1328125 C-5.81093984 8.23799719 -10.26628395 8.33508842 -14.8515625 9.1015625 C-17.70505666 10.81487844 -18.21922483 12.00574969 -19.8515625 15.1015625 C-20.59506971 20.30611294 -19.63178628 23.6737987 -16.8515625 28.1015625 C-13.21960754 30.52286581 -11.46806902 30.31179035 -7.1640625 30.2265625 C-5.98457031 30.20851563 -4.80507813 30.19046875 -3.58984375 30.171875 C-2.68621094 30.14867187 -1.78257812 30.12546875 -0.8515625 30.1015625 C-0.8515625 28.4515625 -0.8515625 26.8015625 -0.8515625 25.1015625 C-1.9859375 25.1221875 -3.1203125 25.1428125 -4.2890625 25.1640625 C-7.8515625 25.1015625 -7.8515625 25.1015625 -8.8515625 24.1015625 C-8.8515625 21.4615625 -8.8515625 18.8215625 -8.8515625 16.1015625 C-3.2415625 16.1015625 2.3684375 16.1015625 8.1484375 16.1015625 C9.36789068 32.41174881 9.36789068 32.41174881 6.5078125 36.375 C4.37494573 37.67841858 2.56311449 38.47145518 0.1484375 39.1015625 C-0.48191406 39.2871875 -1.11226562 39.4728125 -1.76171875 39.6640625 C-8.39718096 41.05316861 -14.90499871 41.2445483 -20.7890625 37.6015625 C-26.01583102 33.50567662 -29.35886301 29.65603742 -30.2890625 22.9453125 C-30.53904137 16.13338828 -30.11193449 11.48308502 -25.8515625 6.1015625 C-18.51700668 -1.2133822 -10.04254079 -3.1640882 0 0 Z " fill="#1E2B3E" transform="translate(710.8515625,763.8984375)"/>
<path d="M0 0 C1.23556641 0.01740234 1.23556641 0.01740234 2.49609375 0.03515625 C3.32238281 0.04417969 4.14867187 0.05320312 5 0.0625 C5.63808594 0.07410156 6.27617188 0.08570313 6.93359375 0.09765625 C8.66332598 4.18075023 10.39227267 8.26417641 12.12109375 12.34765625 C12.60384766 13.4871875 13.08660156 14.62671875 13.58398438 15.80078125 C14.55451534 18.09357924 15.52310136 20.38720149 16.48974609 22.68164062 C17.45596119 24.96761994 18.4303179 27.25017434 19.41259766 29.52929688 C19.86940918 30.59857422 20.3262207 31.66785156 20.796875 32.76953125 C21.20848877 33.7244043 21.62010254 34.67927734 22.04418945 35.66308594 C22.93359375 38.09765625 22.93359375 38.09765625 22.93359375 41.09765625 C19.96359375 41.09765625 16.99359375 41.09765625 13.93359375 41.09765625 C10.93359375 35.34765625 10.93359375 35.34765625 10.93359375 33.09765625 C4.66359375 33.09765625 -1.60640625 33.09765625 -8.06640625 33.09765625 C-8.56140625 35.57265625 -8.56140625 35.57265625 -9.06640625 38.09765625 C-9.39640625 38.75765625 -9.72640625 39.41765625 -10.06640625 40.09765625 C-13.36640625 40.09765625 -16.66640625 40.09765625 -20.06640625 40.09765625 C-6.37741485 0.30139012 -6.37741485 0.30139012 0 0 Z " fill="#1B2736" transform="translate(536.06640625,762.90234375)"/>
<path d="M0 0 C-1.9154221 4.59076711 -5.32994932 7.34532607 -8.90625 10.68359375 C-11.13576355 13.1502011 -12.30297865 14.74556217 -13 18 C-12.03633814 20.62540389 -12.03633814 20.62540389 -10.1875 23.125 C-9.21683594 24.548125 -9.21683594 24.548125 -8.2265625 26 C-5.19741281 30.08138063 -2.01052576 34.0076274 1.27734375 37.8828125 C3 40 3 40 3 41 C-1.0256587 42.1411316 -3.99766171 42.31003131 -8 41 C-12.88682332 36.48260311 -16.46790433 30.59628327 -20 25 C-23.23415898 27.12515709 -24.80524995 28.16935337 -25.70703125 32.015625 C-25.74183594 33.08296875 -25.77664063 34.1503125 -25.8125 35.25 C-25.88404297 36.86648438 -25.88404297 36.86648438 -25.95703125 38.515625 C-25.97830078 39.74539063 -25.97830078 39.74539063 -26 41 C-28.97 41 -31.94 41 -35 41 C-35 27.8 -35 14.6 -35 1 C-32.03 1 -29.06 1 -26 1 C-25.67 5.95 -25.34 10.9 -25 16 C-23.515 14.2675 -23.515 14.2675 -22 12.5 C-21.35675781 11.778125 -20.71351563 11.05625 -20.05078125 10.3125 C-18.70627393 8.79640794 -17.38966119 7.25500912 -16.10546875 5.6875 C-11.09846369 -0.02313714 -7.50345575 -1.10706724 0 0 Z " fill="#1B2736" transform="translate(603,763)"/>
<path d="M0 0 C0.33 0.99 0.66 1.98 1 3 C-0.9375 6.1875 -0.9375 6.1875 -3 9 C-3.61875 8.67 -4.2375 8.34 -4.875 8 C-9.26211512 6.59612316 -13.43151427 6.84032477 -18 7 C-18 8.32 -18 9.64 -18 11 C-17.05898438 11.20753906 -16.11796875 11.41507813 -15.1484375 11.62890625 C-2.60330787 14.73272197 -2.60330787 14.73272197 1.140625 20.140625 C2.62263053 23.34714606 2.62679218 25.55264299 2 29 C-0.31227613 33.45327255 -2.51619142 35.81477307 -7 38 C-15.17862335 39.0846203 -22.09043516 38.60637656 -29 34 C-29.33 33.34 -29.66 32.68 -30 32 C-28.02 29.03 -28.02 29.03 -26 26 C-21.25 26.875 -21.25 26.875 -19 28 C-17.29297265 28.06996014 -15.58331997 28.08440154 -13.875 28.0625 C-12.96492188 28.05347656 -12.05484375 28.04445313 -11.1171875 28.03515625 C-10.41851562 28.02355469 -9.71984375 28.01195312 -9 28 C-9 26.68 -9 25.36 -9 24 C-9.95261719 23.76925781 -10.90523438 23.53851562 -11.88671875 23.30078125 C-13.14097656 22.97464844 -14.39523437 22.64851562 -15.6875 22.3125 C-16.92886719 21.99925781 -18.17023438 21.68601562 -19.44921875 21.36328125 C-23.42646177 19.83626495 -25.34923234 18.30855075 -28 15 C-29.13860018 11.98297186 -29.28263635 9.20509616 -29 6 C-27.29086927 2.30827762 -25.70153166 0.51331585 -22.4375 -1.875 C-14.69469208 -4.40900986 -7.22703146 -3.61351573 0 0 Z " fill="#1C2937" transform="translate(476,766)"/>
<path d="M0 0 C4.62 0 9.24 0 14 0 C14 18.48 14 36.96 14 56 C9.38 56 4.76 56 0 56 C0 37.52 0 19.04 0 0 Z " fill="#1C2C3C" transform="translate(733,672)"/>
<path d="M0 0 C2.5625 2.1875 2.5625 2.1875 4 4 C3.35675781 3.855625 2.71351563 3.71125 2.05078125 3.5625 C-9.65453198 1.15798487 -21.74584434 0.1761428 -32.40625 6.40625 C-39.00357621 11.06836052 -44.57596005 17.84272769 -46 26 C-46.76710771 36.32644998 -45.31264803 43.70337687 -39 52 C-37.9296658 53.07559382 -36.84592402 54.13799159 -35.75 55.1875 C-33 58 -33 58 -33 61 C-32.01 61 -31.02 61 -30 61 C-30.33 62.98 -30.66 64.96 -31 67 C-37.28352078 66.60727995 -41.72146826 62.33388069 -45.9296875 58.0234375 C-52.58546393 50.16790737 -55.77525592 40.9581651 -55.31640625 30.65625 C-53.92842765 19.00408395 -48.36622995 10.16639455 -39.38671875 2.73046875 C-29.14947285 -4.6919534 -11.33958684 -6.46816529 0 0 Z " fill="#C2DBE4" transform="translate(526,242)"/>
<path d="M0 0 C8.91 0 17.82 0 27 0 C27 2.97 27 5.94 27 9 C21.06 9 15.12 9 9 9 C9 11.97 9 14.94 9 18 C14.61 18 20.22 18 26 18 C26 20.64 26 23.28 26 26 C20.39 26 14.78 26 9 26 C9 30.95 9 35.9 9 41 C6.03 41 3.06 41 0 41 C0 27.47 0 13.94 0 0 Z " fill="#202D3F" transform="translate(354,763)"/>
<path d="M0 0 C4.60822253 0.98615962 7.298481 3.67718738 10.328125 7.10546875 C12.4324143 11.39498155 12.65109324 14.72560394 11.953125 19.41796875 C10.39704846 23.6193754 8.82263032 26.12044997 4.953125 28.41796875 C-0.30489836 30.1706432 -4.4121052 30.18908658 -9.359375 27.85546875 C-13.04190913 24.51549594 -14.65017238 21.31610179 -15.328125 16.36328125 C-15.53398504 11.81720538 -14.8994054 8.93608958 -12.046875 5.41796875 C-8.20005476 1.39222664 -5.49896695 -0.38828583 0 0 Z " fill="#EBF3F2" transform="translate(640.046875,684.58203125)"/>
<path d="M0 0 C3.04974619 2.5771463 4.43085636 5.32529778 5.1171875 9.23046875 C5.2202353 14.52025578 5.29110447 18.35718395 1.80078125 22.55078125 C-1.33007747 25.72802306 -4.30467532 26.54094424 -8.69921875 26.73828125 C-12.15164399 26.7045442 -14.11830256 26.28601198 -16.82421875 24.11328125 C-21.5062834 19.08862651 -21.93903684 15.11713125 -21.83984375 8.35546875 C-21.24111557 4.40179816 -19.81690399 2.40067047 -17.08984375 -0.4296875 C-11.61637282 -4.30882172 -5.47229842 -3.05693912 0 0 Z " fill="#E8F3F2" transform="translate(294.38671875,687.63671875)"/>
<path d="M0 0 C3.57735296 2.20730289 5.41840589 4.15006697 7 8 C7.75720757 13.95932192 7.36688267 18.88732632 4 24 C1.95943261 26.4656856 1.13026076 26.95657975 -2 28 C-6.64880784 28.38104982 -9.07414211 28.43672542 -13.3125 26.4375 C-17.49193868 22.64684631 -18.79056688 18.98961463 -19.375 13.4375 C-18.80942291 8.25304338 -17.31302164 5.18492197 -13.4375 1.6875 C-8.77367914 -1.54129905 -5.45162521 -1.22614408 0 0 Z " fill="#E9F3F2" transform="translate(704,686)"/>
<path d="M0 0 C10.89 0 21.78 0 33 0 C33 2.97 33 5.94 33 9 C29.04 9 25.08 9 21 9 C21 19.56 21 30.12 21 41 C18.03 41 15.06 41 12 41 C12 30.44 12 19.88 12 9 C8.04 9 4.08 9 0 9 C0 6.03 0 3.06 0 0 Z " fill="#212F3B" transform="translate(484,763)"/>
<path d="M0 0 C10.23 0 20.46 0 31 0 C31 2.97 31 5.94 31 9 C27.04 9 23.08 9 19 9 C19 19.56 19 30.12 19 41 C16.03 41 13.06 41 10 41 C10 30.44 10 19.88 10 9 C6.7 9 3.4 9 0 9 C0 6.03 0 3.06 0 0 Z " fill="#1E2C3C" transform="translate(387,763)"/>
<path d="M0 0 C3.3 0 6.6 0 10 0 C10 13.53 10 27.06 10 41 C6.7 41 3.4 41 0 41 C0 27.47 0 13.94 0 0 Z " fill="#283342" transform="translate(613,763)"/>
<path d="M0 0 C2.95055772 0.98351924 3.85268101 1.80532848 5.75 4.3125 C7.15663635 7.33676815 7.63914234 8.72439553 7 12 C5.12082939 14.87443505 3.1219155 17.43904225 0 19 C-7.08958838 19.5811138 -7.08958838 19.5811138 -10.9375 17.125 C-13.55197555 14.43129792 -13.94056139 13.51513465 -14.375 9.75 C-13.88072704 4.80727042 -12.46171699 3.46171699 -9 0 C-5.88094953 -1.55952523 -3.35318513 -0.6359489 0 0 Z " fill="#E9F2F1" transform="translate(595,341)"/>
<path d="M0 0 C2.87029869 1.79393668 4.49131638 2.98263276 6 6 C6.59873168 11.26883876 5.25400021 13.8846468 2 18 C-1.50580076 19.75290038 -5.18379058 19.67770616 -9 19 C-12.17457096 16.4085135 -13.54580349 14.92564305 -14.47265625 10.99609375 C-14.74924348 7.25862018 -14.07962876 5.12329615 -12.0625 2 C-7.96602574 -0.67524849 -4.76875356 -0.95893414 0 0 Z " fill="#EAF2F4" transform="translate(433,341)"/>
<path d="M0 0 C3.60067126 0.87838956 4.94522296 2.42198203 6.9375 5.47265625 C7.80686882 9.79641974 7.73397745 13.19829233 5.375 16.97265625 C2.12283206 18.97399037 -0.24982499 19.40576721 -4.0625 19.47265625 C-6.93802999 18.25854359 -8.5083311 17.21154811 -10.375 14.72265625 C-11.38703615 11.41053793 -11.48564481 8.91826399 -11.0625 5.47265625 C-8.01479579 0.99634068 -5.2630165 -0.38874554 0 0 Z " fill="#1F303E" transform="translate(742.0625,648.52734375)"/>
<path d="M0 0 C6.27 0 12.54 0 19 0 C19 4.29 19 8.58 19 13 C12.73 13 6.46 13 0 13 C0 8.71 0 4.42 0 0 Z " fill="#222E3C" transform="translate(374,696)"/>
<path d="M0 0 C1.76923828 0.01353516 1.76923828 0.01353516 3.57421875 0.02734375 C4.47785156 0.03894531 5.38148438 0.05054688 6.3125 0.0625 C6.5390625 5.7734375 6.5390625 5.7734375 4.5 8.375 C0.98712807 11.08492978 -1.94394594 11.2213312 -6.25 11.25 C-7.70599609 11.27126953 -7.70599609 11.27126953 -9.19140625 11.29296875 C-11.6875 11.0625 -11.6875 11.0625 -13.6875 9.0625 C-14.0625 6.625 -14.0625 6.625 -13.6875 4.0625 C-9.5469822 0.06475868 -5.54003729 -0.05485185 0 0 Z " fill="#E7EFF0" transform="translate(781.6875,703.9375)"/>
<path d="M0 0 C0.8058252 0.00547852 1.61165039 0.01095703 2.44189453 0.01660156 C3.25803223 0.02079102 4.07416992 0.02498047 4.91503906 0.02929688 C12.01074137 0.16250958 17.89988779 0.7856202 23.44189453 5.51660156 C23.91626953 6.11472656 24.39064453 6.71285156 24.87939453 7.32910156 C24.23615234 7.18472656 23.59291016 7.04035156 22.93017578 6.89160156 C12.86720689 4.82445817 3.01894176 4.73858435 -7.12060547 6.32910156 C-7.74560547 4.45410156 -7.74560547 4.45410156 -8.12060547 2.32910156 C-5.49989846 -0.29160544 -3.57306997 0.04391567 0 0 Z " fill="#DBEFF5" transform="translate(505.12060546875,238.6708984375)"/>
<path d="M0 0 C3.0625 0.3125 3.0625 0.3125 4.9375 1.4375 C6.59104531 4.19340884 6.45615568 6.16325452 6.0625 9.3125 C4.875 11.1875 4.875 11.1875 3.0625 12.3125 C-0.2600955 12.90886329 -1.51205503 12.60359393 -4.3125 10.6875 C-5.9375 8.3125 -5.9375 8.3125 -5.8125 5.1875 C-4.6523027 1.37542316 -4.01663759 0.42730187 0 0 Z " fill="#EAF6F8" transform="translate(423.9375,479.6875)"/>
<path d="M0 0 C2.91226879 1.4561344 3.31842064 3.49960664 4.625 6.4375 C5.07101562 7.42621094 5.51703125 8.41492188 5.9765625 9.43359375 C7 12 7 12 7 14 C3.04 14 -0.92 14 -5 14 C-1.85714286 4.42857143 -1.85714286 4.42857143 0 0 Z " fill="#D7E2E6" transform="translate(537,774)"/>
<path d="M0 0 C1.32 1.32 2.64 2.64 4 4 C3.01 4.495 3.01 4.495 2 5 C1.67 16.88 1.34 28.76 1 41 C0.67 41 0.34 41 0 41 C0 27.47 0 13.94 0 0 Z " fill="#DFEBF1" transform="translate(203,686)"/>
<path d="M0 0 C0.33 0 0.66 0 1 0 C1.06058594 0.80824219 1.12117188 1.61648438 1.18359375 2.44921875 C1.26738281 3.51785156 1.35117187 4.58648438 1.4375 5.6875 C1.51871094 6.74324219 1.59992188 7.79898438 1.68359375 8.88671875 C1.93028963 11.93755116 1.93028963 11.93755116 2.59375 14.625 C3.2435723 18.42396116 2.05752391 21.32976995 1 25 C0.67 25 0.34 25 0 25 C0 16.75 0 8.5 0 0 Z " fill="#182334" transform="translate(498,563)"/>
<path d="M0 0 C4.43090471 1.20842856 6.98112756 2.51668565 10 6 C6.37 5.34 2.74 4.68 -1 4 C-0.67 2.68 -0.34 1.36 0 0 Z " fill="#C9E0EA" transform="translate(520,240)"/>
<path d="M0 0 C1 3 1 3 -0.1875 5.4375 C-1.93979049 7.91487622 -3.78315483 9.9360407 -6 12 C-6.66 11.67 -7.32 11.34 -8 11 C-5.36 7.37 -2.72 3.74 0 0 Z " fill="#D5E4E8" transform="translate(652,514)"/>
<path d="M0 0 C0.66 0.99 1.32 1.98 2 3 C1.34 3 0.68 3 0 3 C-0.33 4.65 -0.66 6.3 -1 8 C-1.99 8.33 -2.98 8.66 -4 9 C-4 9.66 -4 10.32 -4 11 C-4.66 10.67 -5.32 10.34 -6 10 C-4.02 6.7 -2.04 3.4 0 0 Z " fill="#B2D5DE" transform="translate(562,299)"/>
<path d="M0 0 C1 3 1 3 0.22265625 5.04296875 C-0.16019531 5.75066406 -0.54304687 6.45835937 -0.9375 7.1875 C-1.31777344 7.90292969 -1.69804688 8.61835938 -2.08984375 9.35546875 C-2.54037109 10.16951172 -2.54037109 10.16951172 -3 11 C-3.33 11 -3.66 11 -4 11 C-3.56179109 6.44262737 -3.14958831 3.42346555 0 0 Z " fill="#586870" transform="translate(594,274)"/>
<path d="M0 0 C0.66 0.33 1.32 0.66 2 1 C0.08864614 4.53600465 -1.62642766 6.78972846 -5 9 C-3.50163895 5.88801935 -1.80066242 2.9465385 0 0 Z " fill="#4A5A64" transform="translate(367,314)"/>
</svg>
